Coordinates
version=1
nRows=19
nColumns=33
inDegrees=yes

Units are S.I. units (second, meters, Newtons, ...)
Angles are in degrees.

endheader
time	ground_thorax_rot_x	ground_thorax_rot_y	ground_thorax_rot_z	ground_thorax_tx	ground_thorax_ty	ground_thorax_tz	clav_prot_r	clav_elev_r	scapula_abduction_r	scapula_elevation_r	scapula_upward_rot_r	scapula_winging_r	shoulder_elv_r	plane_of_elev_r	axial_rot_r	elbow_flexion_r	pro_sup_r	wrist_flex_r	wrist_dev_r	clav_prot_l	clav_elev_l	scapula_abduction_l	scapula_elevation_l	scapula_upward_rot_l	scapula_winging_l	shoulder_elv_l	plane_of_elev_l	axial_rot_l	elbow_flexion_l	pro_sup_l	wrist_flex_l	wrist_dev_l
      7.23000000	     28.53672906	     30.30316604	     40.84913545	    -84.40583320	    780.50695275	      6.23753829	     14.21882593	     36.36838694	     34.42370074	     45.00000000	    -45.00000000	  -2598.33518204	  -1551.16087481	    144.86335873	    179.99999979	   2888.04303648	     56.90195438	     23.35105862	     13.08704304	      6.71846493	    -45.00000000	    -36.53858787	     45.00000000	    -45.00000000	   2252.56953922	  -1370.07285213	     20.29013248	    -55.38985244	    368.85991102	     23.98044507	      8.92789563	    -19.46156341
      7.24000000	     28.76827907	     30.06870539	     40.42642363	    -86.54195861	    781.14588576	      6.21389192	     14.20395860	     36.37711696	     34.52416973	     45.00000000	    -45.00000000	  -2598.46610486	  -1550.97689512	    144.78670952	    179.99999979	   2888.23481706	     56.85069512	     23.41616635	     13.02815946	      6.71465129	    -45.00000000	    -36.56654601	     45.00000000	    -45.00000000	   2252.63676253	  -1369.91346228	     20.47940223	    -54.98499027	    368.95712637	     23.84426810	      8.85076398	    -19.49507012
      7.25000000	     29.06156132	     29.78771068	     39.90165259	    -88.74211739	    781.81794274	      6.20138884	     14.16268969	     36.29719849	     34.68794679	     45.00000000	    -45.00000000	  -2598.69260189	  -1550.84842910	    144.65872938	    179.99999979	   2888.43485013	     56.77862494	     23.49992946	     12.98033973	      6.71081758	    -45.00000000	    -36.61660715	     45.00000000	    -45.00000000	   2252.71632415	  -1369.79726229	     20.72872999	    -54.60841675	    369.04534326	     23.71194149	      8.76684870	    -19.52387289
      7.26000000	     29.32554124	     29.54806951	     39.44826085	    -91.01291012	    782.52638571	      6.19962906	     14.15162599	     36.28107584	     34.81280954	     45.00000000	    -45.00000000	  -2598.88818282	  -1550.64129952	    144.55918272	    179.99999979	   2888.63256374	     56.68263184	     23.56439109	     12.92291858	      6.68901428	    -45.00000000	    -36.68602827	     45.00000000	    -45.00000000	   2252.78013129	  -1369.66769177	     20.90695753	    -54.20908358	    369.14838263	     23.58085101	      8.70840764	    -19.56178535
      7.27000000	     29.59553146	     29.30801588	     39.00708933	    -93.34720620	    783.27054658	      6.20780925	     14.13910192	     36.27063849	     34.94848805	     45.00000000	    -45.00000000	  -2599.07894209	  -1550.41548096	    144.49268436	    179.99999979	   2888.81220058	     56.57226840	     23.60693862	     12.85408512	      6.68043054	    -45.00000000	    -36.75621319	     45.00000000	    -45.00000000	   2252.82228346	  -1369.57815685	     21.06052485	    -53.80615869	    369.21224982	     23.45015408	      8.64368749	    -19.58722936
      7.28000000	     29.68875179	     29.14067928	     38.71753123	    -95.75426435	    784.05440307	      6.22500111	     14.17572312	     36.36874668	     34.92548757	     45.00000000	    -45.00000000	  -2599.14563284	  -1550.21646436	    144.48798556	    179.99999979	   2888.97051530	     56.44705096	     23.63166700	     12.78489893	      6.68996717	    -45.00000000	    -36.75645680	     45.00000000	    -45.00000000	   2252.94192744	  -1369.25535018	     21.21938620	    -53.31709998	    369.42526340	     23.28039094	      8.57021905	    -19.64118813
      7.29000000	     29.91647387	     28.89982262	     38.28564401	    -98.22752087	    784.87671175	      6.24987815	     14.21447994	     36.52262731	     34.97595760	     45.00000000	    -45.00000000	  -2599.18625714	  -1549.90030633	    144.50256248	    179.99999979	   2889.18638000	     56.30115452	     23.60335560	     12.64176611	      6.70376781	    -45.00000000	    -36.83047104	     45.00000000	    -45.00000000	   2253.02355337	  -1369.08343987	     21.38469829	    -53.07110653	    369.47198727	     23.14225622	      8.51408066	    -19.66108925
      7.30000000	     30.12192254	     28.67199733	     37.87365840	   -100.76796408	    785.73839082	      6.28092864	     14.19761238	     36.54450304	     35.04897135	     45.00000000	    -45.00000000	  -2599.32906634	  -1549.67510553	    144.45780843	    179.99999979	   2889.35824722	     56.19261652	     23.63869421	     12.56212280	      6.69959118	    -45.00000000	    -36.86289120	     45.00000000	    -45.00000000	   2253.09856372	  -1368.88786613	     21.54921679	    -52.58136051	    369.56118079	     22.94426041	      8.44910958	    -19.68794377
      7.31000000	     30.30024339	     28.44220003	     37.49943349	   -103.37224033	    786.63859816	      6.31604755	     14.24289806	     36.70696547	     35.07108712	     45.00000000	    -45.00000000	  -2599.35456918	  -1549.36422472	    144.49441287	    179.99999979	   2889.55833437	     56.09422103	     23.60796484	     12.41003546	      6.71459792	    -45.00000000	    -36.88837484	     45.00000000	    -45.00000000	   2253.17193076	  -1368.66207369	     21.69168801	    -52.19331113	    369.56543357	     22.73876271	      8.41043678	    -19.69820693
      7.32000000	     30.48447215	     28.20102273	     37.13333451	   -106.03821286	    787.57705300	      6.35295136	     14.23014387	     36.59129645	     35.17880716	     45.00000000	    -45.00000000	  -2599.62143159	  -1549.23747956	    144.35560480	    179.99999979	   2889.73267819	     56.03833225	     23.67768523	     12.34953556	      6.73535238	    -45.00000000	    -36.98916125	     45.00000000	    -45.00000000	   2253.35555539	  -1368.42884339	     21.80236117	    -51.69054748	    369.90544542	     22.43302873	      8.32979428	    -19.77355629
      7.33000000	     30.68260249	     28.03237542	     36.78371060	   -108.76497066	    788.55347800	      6.38910763	     14.20493422	     36.41388242	     35.27745115	     45.00000000	    -45.00000000	  -2599.95464081	  -1549.10911165	    144.21906724	    179.99999979	   2889.86052794	     56.01958024	     23.77884678	     12.32290700	      6.79931453	    -45.00000000	    -37.01814634	     45.00000000	    -45.00000000	   2253.44967322	  -1368.29437939	     21.92289928	    -51.10585432	    369.97122652	     22.08841640	      8.26945223	    -19.78657210
      7.34000000	     30.86507817	     27.77918856	     36.38335041	   -111.54842014	    789.56580913	      6.42227898	     14.29745287	     36.57932319	     35.29111146	     45.00000000	    -45.00000000	  -2599.97948967	  -1548.79649766	    144.25902168	    179.99999979	   2890.08264361	     55.99800671	     23.71377384	     12.11349044	      6.79459580	    -45.00000000	    -37.09294697	     45.00000000	    -45.00000000	   2253.56959626	  -1368.02587237	     22.03664908	    -50.85453441	    370.13735954	     21.74544750	      8.25263684	    -19.83183495
      7.35000000	     31.08481549	     27.55353268	     35.94900869	   -114.38820744	    790.61266264	      6.45075829	     14.24623584	     36.43564604	     35.40339483	     45.00000000	    -45.00000000	  -2600.28095989	  -1548.62055003	    144.13289287	    179.99999979	   2890.24610124	     56.02875281	     23.80555569	     12.04918235	      6.85110686	    -45.00000000	    -37.09815054	     45.00000000	    -45.00000000	   2253.67020201	  -1367.89445181	     22.21724296	    -50.39009309	    370.17306707	     21.32232411	      8.17871521	    -19.83297195
      7.36000000	     31.26209413	     27.24920100	     35.56923471	   -117.28135360	    791.69058516	      6.47383936	     14.25901816	     36.44153745	     35.44830050	     45.00000000	    -45.00000000	  -2600.38344841	  -1548.41379408	    144.09154145	    179.99999979	   2890.42612196	     56.06256873	     23.83339907	     11.92522453	      6.89476385	    -45.00000000	    -37.16142901	     45.00000000	    -45.00000000	   2253.81221789	  -1367.62873692	     22.32833766	    -50.08480893	    370.24198904	     20.86067011	      8.13491204	    -19.84545469
      7.37000000	     31.55149361	     26.74906071	     34.81892250	   -120.21669534	    792.79324713	      6.49156740	     14.31243279	     36.60309201	     35.56521957	     45.00000000	    -45.00000000	  -2600.39048643	  -1548.11595209	    144.04760662	    179.99999979	   2890.74553958	     56.06608887	     23.73298694	     11.63410315	      6.79767952	    -45.00000000	    -37.41428698	     45.00000000	    -44.02312533	   2254.01992916	  -1367.49561379	     22.21391236	    -49.95012987	    370.37837731	     20.47514891	      8.19911792	    -19.91368690
      7.38000000	     31.87116616	     26.26595672	     34.06557988	   -123.18754248	    793.91534810	      6.50487326	     14.22388137	     36.70663150	     35.72145074	     45.00000000	    -45.00000000	  -2600.49172014	  -1547.85447276	    143.99024985	    179.99999979	   2890.98266619	     56.08800273	     23.71410428	     11.42889641	      6.71283801	    -45.00000000	    -37.59978323	     45.00000000	    -43.11516208	   2254.14976432	  -1367.45335849	     22.17313131	    -49.65909701	    370.29680530	     20.08844575	      8.16207121	    -19.91954196
      7.39000000	     32.21952247	     25.75861861	     33.27767930	   -126.18144797	    795.04961719	      6.51479323	     14.09045334	     36.68959480	     35.95678169	     45.00000000	    -45.00000000	  -2600.70205199	  -1547.74912341	    143.89427724	    179.99999979	   2891.20408205	     56.10112446	     23.77930200	     11.29028205	      6.61616644	    -45.00000000	    -37.70713500	     45.00000000	    -41.85970146	   2254.36825689	  -1367.58494587	     22.08773807	    -49.55976881	    370.11013300	     19.73439974	      8.03573472	    -19.89280193
      7.40000000	     32.22114332	     25.80344948	     33.30730040	   -129.19015969	    796.18974495	      6.52248170	     14.16160428	     36.32296397	     35.79599024	     45.00000000	    -45.00000000	  -2601.05256617	  -1547.53155444	    143.69322048	    179.99999979	   2891.26619981	     56.11060665	     23.95348906	     11.38885396	      6.90922582	    -45.00000000	    -37.59113214	     45.00000000	    -43.22548338	   2254.52534561	  -1367.11248026	     22.51933295	    -49.44412255	    370.49410884	     19.10044504	      7.89237121	    -19.92611438
      7.41000000	     32.49753427	     25.29713490	     32.54895209	   -132.19706658	    797.32761952	      6.52846074	     14.21074947	     36.51319334	     35.91596784	     45.00000000	    -45.00000000	  -2601.02695434	  -1547.30039900	    143.76002201	    179.99999979	   2891.50443001	     56.06614290	     23.77059339	     11.05482644	      6.75049471	    -45.00000000	    -37.80087982	     45.00000000	    -42.15700066	   2254.63877197	  -1367.02648334	     22.34996459	    -49.01923985	    370.49417614	     18.67682492	      8.04727028	    -19.98428593
